<svg id="Layer_1" data-name="Layer 1" xmlns="http://www.w3.org/2000/svg" width="2409.1799" height="2409.1799" viewBox="0 0 2409.1799 2409.1799">
  <defs>
    <style>
      .cls-1 {
        fill: none;
      }
    </style>
  </defs>
  <g>
    <path class="cls-1" d="M1529.3619,834.4252h-2.0263c-88.3946,0-160.3086-71.9143-160.3086-160.3091V657.2008H1042.153v16.9153c0,88.3948-71.9141,160.3091-160.3086,160.3091H879.818c-88.3945,0-160.31-71.9143-160.31-160.3091V657.2008H630.9313a61.9418,61.9418,0,0,0-61.8721,61.8716V1859.9462a61.9419,61.9419,0,0,0,61.8721,61.8715H1778.2487a61.9418,61.9418,0,0,0,61.872-61.8715V719.0724a61.9417,61.9417,0,0,0-61.872-61.8716h-88.5772v16.9153C1689.6715,762.5109,1617.7565,834.4252,1529.3619,834.4252Z"/>
    <path class="cls-1" d="M1527.3356,714.4252h2.0263a40.3551,40.3551,0,0,0,40.31-40.3091V657.2008H1487.027v16.9153A40.3542,40.3542,0,0,0,1527.3356,714.4252Z"/>
    <path class="cls-1" d="M922.153,527.6713a40.3543,40.3543,0,0,0-40.3086-40.3091H879.818a40.3551,40.3551,0,0,0-40.31,40.3091v9.53H922.153Z"/>
    <path class="cls-1" d="M1569.6715,527.6713a40.3551,40.3551,0,0,0-40.31-40.3091h-2.0263a40.3542,40.3542,0,0,0-40.3086,40.3091v9.53h82.6445Z"/>
    <path class="cls-1" d="M879.818,714.4252h2.0264a40.3543,40.3543,0,0,0,40.3086-40.3091V657.2008H839.5084v16.9153A40.3551,40.3551,0,0,0,879.818,714.4252Z"/>
    <path d="M1778.2487,537.201h-88.5772v-9.53c0-88.3951-71.915-160.3091-160.31-160.3091h-2.0263c-88.3946,0-160.3086,71.914-160.3086,160.3091v9.53H1042.153v-9.53c0-88.3951-71.9141-160.3091-160.3086-160.3091H879.818c-88.3945,0-160.31,71.914-160.31,160.3091v9.53H630.9313c-100.2842,0-181.8721,81.587-181.8721,181.8714V1859.9462c0,100.2841,81.5879,181.8715,181.8721,181.8715H1778.2487c100.2841,0,181.872-81.5874,181.872-181.8715V719.0724C1960.1207,618.788,1878.5328,537.201,1778.2487,537.201Zm-291.2217,120V527.6713a40.3542,40.3542,0,0,1,40.3086-40.3091h2.0263a40.3551,40.3551,0,0,1,40.31,40.3091V674.1161a40.3551,40.3551,0,0,1-40.31,40.3091h-2.0263a40.3542,40.3542,0,0,1-40.3086-40.3091Zm-647.5186,0V527.6713a40.3551,40.3551,0,0,1,40.31-40.3091h2.0264a40.3543,40.3543,0,0,1,40.3086,40.3091V674.1161a40.3543,40.3543,0,0,1-40.3086,40.3091H879.818a40.3551,40.3551,0,0,1-40.31-40.3091Zm-208.5771,0h88.5771v16.9153c0,88.3948,71.9151,160.3091,160.31,160.3091h2.0264c88.3945,0,160.3086-71.9143,160.3086-160.3091V657.2008h324.874v16.9153c0,88.3948,71.914,160.3091,160.3086,160.3091h2.0263c88.3946,0,160.31-71.9143,160.31-160.3091V657.2008h88.5772a61.9417,61.9417,0,0,1,61.872,61.8716V903.1351H569.0592V719.0724A61.9418,61.9418,0,0,1,630.9313,657.2008ZM1778.2487,1921.8177H630.9313a61.9419,61.9419,0,0,1-61.8721-61.8715V1023.1351H1840.1207v836.8111A61.9418,61.9418,0,0,1,1778.2487,1921.8177Z"/>
    <path d="M1128.733,1701.119a65.657,65.657,0,0,1-46.57-19.2593L882.444,1482.1405a60,60,0,1,1,84.8525-84.8525l161.4365,161.436L1472.1461,1215.31A60,60,0,1,1,1557,1300.163L1175.3033,1681.86A65.6567,65.6567,0,0,1,1128.733,1701.119Z"/>
  </g>
</svg>
