<?xml version="1.0" encoding="utf-8"?>
<!-- Generator: Adobe Illustrator 27.0.0, SVG Export Plug-In . SVG Version: 6.00 Build 0)  -->
<svg version="1.1" id="Layer_1" xmlns="http://www.w3.org/2000/svg" xmlns:xlink="http://www.w3.org/1999/xlink" x="0px" y="0px"
	 viewBox="0 0 707.03 650.37" style="enable-background:new 0 0 707.03 650.37;" xml:space="preserve">
<style type="text/css">
	.st0{fill:#FCDC21;}
	.st1{fill:#0496FF;}
	.st2{fill:#FFFFFF;}
	.st3{font-family:'Poppins-SemiBold';}
	.st4{font-size:92px;}
</style>
<path class="st0" d="M451,202.37c141.4,0,256,93.1,256,208c0,45.1-17.7,86.8-47.7,120.8c1.9,24.5,11.4,46.3,21.4,62.9
	c5.6,9.2,11.1,16.6,15.2,21.6c2.1,2.6,3.8,4.5,4.9,5.7c0.6,0.7,1,1.1,1.3,1.4l0.3,0.3l0,0l0,0l0,0l0,0c4.5,4.6,5.9,11.4,3.4,17.4
	s-8.3,9.9-14.8,9.9c-28.7,0-57.6-8.9-81.6-19.3c-23-10-42.4-21.9-54.3-30.6c-31.8,11.5-67,17.9-104.1,17.9
	c-141.4,0-256-93.1-256-208S309.6,202.37,451,202.37z"/>
<path class="st1" d="M618.74,251.35c0,138.85-138.48,251.35-309.35,251.35c-44.83,0-87.37-7.73-125.8-21.63
	c-14.38,10.51-37.82,24.89-65.62,36.98c-29,12.57-63.93,23.32-98.61,23.32c-7.85,0-14.86-4.71-17.88-11.96s-1.33-15.47,4.11-21.03
	l0,0l0,0l0,0l0,0l0.36-0.36c0.36-0.36,0.85-0.85,1.57-1.69c1.33-1.45,3.38-3.75,5.92-6.89c4.95-6.04,11.6-14.98,18.37-26.1
	c12.08-20.06,23.56-46.4,25.86-76.01C21.42,356.24,0.04,305.85,0.04,251.35C0.04,112.5,138.52,0,309.39,0
	S618.74,112.5,618.74,251.35z"/>
<text transform="matrix(1 0 0 1 147.0446 162.2017)"><tspan x="0" y="0" class="st2 st3 st4">Tell Me</tspan><tspan x="19.46" y="110.4" class="st2 st3 st4">About</tspan><tspan x="-28.52" y="220.8" class="st2 st3 st4">Yourself</tspan></text>
</svg>
