<svg id="Layer_1" data-name="Layer 1" xmlns="http://www.w3.org/2000/svg" width="1634.8019" height="1238.1725" viewBox="0 0 1634.8019 1238.1725">
  <defs>
    <style>
      .cls-1 {
        fill: #0b8459;
      }

      .cls-2 {
        fill: #0095d0;
      }

      .cls-3 {
        fill: #bfd3d6;
      }

      .cls-4 {
        fill: #fffdfe;
      }

      .cls-5 {
        fill: #ff9b00;
      }
    </style>
  </defs>
  <polygon class="cls-1" points="1264.703 1092.616 145.36 1092.616 145.36 668.51 1264.703 668.51 1475.569 880.563 1264.703 1092.616"/>
  <path d="M1284.049,1172.3032H104.0783a47.2926,47.2926,0,0,1-47.2393-47.2388V631.7089A47.2926,47.2926,0,0,1,104.0783,584.47H1284.049a46.9288,46.9288,0,0,1,33.4,13.8374l246.6782,246.6782a47.2361,47.2361,0,0,1,0,66.8017L1317.45,1158.4653A46.9292,46.9292,0,0,1,1284.049,1172.3032ZM104.0783,616.47A15.2562,15.2562,0,0,0,88.839,631.7089v493.3555a15.2563,15.2563,0,0,0,15.2393,15.2388H1284.049a15.1387,15.1387,0,0,0,10.7739-4.4658L1541.5006,889.16a15.236,15.236,0,0,0,0-21.5459L1294.8229,620.936a15.1389,15.1389,0,0,0-10.7739-4.4658Zm1164.9653,493.3549H140.317a21.0239,21.0239,0,0,1-21-21V667.9482a21.0239,21.0239,0,0,1,21-21H1269.0436a20.8625,20.8625,0,0,1,14.8462,6.1479l210.4414,210.4414a20.9988,20.9988,0,0,1,0,29.6978l-210.4385,210.439A20.8623,20.8623,0,0,1,1269.0436,1109.8251Zm-1117.7266-32H1264.4875l199.4384-199.4389-199.4384-199.438H151.317Z"/>
  <g>
    <path d="M352.15,957.5522c-14.2994,10.92-32.2393,15.34-53.0386,15.34s-44.7193-5.72-69.1587-23.92l26-44.1992c16.64,14.04,40.0391,19.5,47.8389,19.5s13.26-2.34,13.26-7.54-6.5-7.2793-13-9.3594c-6.5-1.82-20.8-6.5-26-8.32-24.9595-9.88-41.0791-21.5791-41.0791-51.4785,0-19.5,10.14-34.5791,20.7993-43.419,10.92-9.1,28.8594-15.6,52.7788-15.6s48.3594,8.5791,63.959,21.5791l-22.36,41.6c-13.52-11.96-33.2793-17.16-42.6392-17.16s-14.56,1.82-14.56,7.28c0,5.1992,8.32,7.02,12.48,8.3194s15.08,4.42,21.3193,6.5c27.04,9.1,46.7994,22.6191,46.7994,54.0791C375.55,929.4731,366.45,946.3725,352.15,957.5522Z"/>
    <path d="M391.15,969.7719V790.3754h58.7587V969.7719Z"/>
    <path d="M563.005,972.6323c-48.0986,0-94.8979-28.8594-94.8979-92.5586s46.7993-92.2979,96.1982-92.2979,70.1983,25.9991,75.3985,31.1992l-39,32.4991a49.6549,49.6549,0,0,0-36.3989-15.6c-20.8,0-37.1792,15.6-37.1792,44.1992s16.3794,44.1992,37.1792,44.1992,24.6992-6.5,24.6992-6.5v-13H561.7052V861.354h84.4981v78.5185C631.904,952.8725,611.1042,972.6323,563.005,972.6323Z"/>
    <path d="M777.505,969.7719,722.9059,869.6743s1.3,19.499,1.3,32.499v67.5986H667.007V790.3754h63.6987l51.999,100.0987s-1.3-19.5-1.3-32.5V790.3754h57.1988V969.7719Z"/>
    <path d="M1058.3,951.5727c-13,12.999-33.7993,21.06-62.3984,21.06s-49.3989-8.0606-62.3989-21.06-19.5-29.8994-19.5-58.499V790.3754h59.019V895.6733c0,15.34,6.24,26,22.8794,26s22.62-10.66,22.62-26V790.3754H1077.8V893.0737C1077.8,921.6733,1071.3,938.5727,1058.3,951.5727Z"/>
    <path d="M1180.4982,913.8735h-19.24v55.8984H1102.5V790.3754h77.9985c40.56,0,70.1982,18.2,70.1982,61.8789C1250.6964,895.6733,1220.797,913.8735,1180.4982,913.8735Zm-9.88-79.2988h-9.62v35.1h9.62c12.22,0,20.8-3.6407,20.8-17.42C1191.4181,838.7348,1182.5783,834.5747,1170.6183,834.5747Z"/>
  </g>
  <g>
    <polygon class="cls-2" points="462.034 108.013 520.974 141.856 614.173 115.144 713.712 101.045 809.484 115.144 861.03 124.374 895.294 141.856 960.569 110.003 981.472 129.911 976.495 181.672 967.154 382.74 931.224 502.187 844.011 566.721 827.187 606.398 600.169 606.398 576.395 586.304 567.971 551.334 485.039 499.201 450.104 419.123 449.104 194.612 435.003 148.824 449.104 115.144 462.034 108.013"/>
    <path class="cls-3" d="M833.9367,546.419c27.13-31.8736,44.3469-74.0621,46.23-120.6375a48.0647,48.0647,0,0,1-9.6471,2.66c-15.8408,2.6385-31.8153.4383-47.3242-3.28a310.7873,310.7873,0,0,1-30.4389-9.2859c-15.2669-5.3614-29.2423-11.123-41.4211-22.1016-11.006-9.9215-18.8154-23.0879-24.8982-36.4523-1.1467-2.52-2.2925-5.0607-3.3974-7.6167H690.1356c-1.662,1.7531-3.1349,3.3348-3.4164,3.64-11.0856,12.0071-20.6978,25.4271-32.9788,36.2977-15.643,13.8466-33.6819,22.7942-53.63,28.7622-20.3986,6.1026-42.9449,8.4491-63.5386,1.9115-.1645-.0522-.3169-.1208-.479-.1762.6666,48.775,18.1385,93.0689,46.3278,126.218a24.9074,24.9074,0,0,0-10.162,20.3633c0,13.4686,10.1123,24.3871,22.5863,24.3871,9.2059,0,17.12-5.95,20.6377-14.48.8127.5723,1.6327,1.1329,2.4547,1.69-.0127.3355-.0237.6715-.0237,1.01,0,13.4686,10.1122,24.3871,22.5864,24.3871a21.6052,21.6052,0,0,0,15.1575-6.3083,158.0829,158.0829,0,0,0,104.9908.0383,21.5993,21.5993,0,0,0,15.1166,6.27c12.4741,0,22.5864-10.9185,22.5864-24.3871,0-.3034-.011-.604-.0212-.9047.8351-.565,1.662-1.1432,2.4876-1.7234,3.5328,8.4906,11.4277,14.4069,20.6072,14.4069,12.4742,0,22.5864-10.9185,22.5864-24.3871A24.9192,24.9192,0,0,0,833.9367,546.419Z"/>
    <path class="cls-4" d="M836.6244,160.0728a129.55,129.55,0,0,0-128.495,113.0826,129.5211,129.5211,0,1,0,0,32.8926,129.5362,129.5362,0,1,0,128.495-145.9752Z"/>
    <g>
      <ellipse class="cls-5" cx="640.4994" cy="583.0867" rx="19.4207" ry="23.3116"/>
      <ellipse class="cls-5" cx="594.8444" cy="568.5745" rx="18.601" ry="22.3277"/>
      <ellipse class="cls-5" cx="775.7644" cy="583.0867" rx="17.485" ry="20.9881"/>
      <ellipse class="cls-5" cx="821.4244" cy="568.5745" rx="18.601" ry="22.3277"/>
    </g>
    <polygon class="cls-5" points="678.33 389.971 708.129 420.496 741.703 387.98 710.016 339.869 678.33 389.971"/>
    <g>
      <path d="M576.395,215.2889c-40.5,0-73.3316,33.9545-73.3316,75.8394s32.8317,75.8394,73.3316,75.8394,73.3317-33.9545,73.3317-75.8394S616.895,215.2889,576.395,215.2889ZM549.5,324.539a18.4712,18.4712,0,1,1,18.4712-18.4711A18.4712,18.4712,0,0,1,549.5,324.539Zm50.6691-24.32a28.809,28.809,0,1,1,28.809-28.8089A28.8089,28.8089,0,0,1,600.1692,300.2192Z"/>
      <path d="M766.5473,291.1283c0,41.8849,32.8317,75.8394,73.3317,75.8394s73.3316-33.9545,73.3316-75.8394-32.8317-75.8394-73.3316-75.8394S766.5473,249.2434,766.5473,291.1283Zm68.2969-19.718a28.8089,28.8089,0,1,1,28.8089,28.8089A28.809,28.809,0,0,1,834.8442,271.41Zm-40.3314,34.6576A18.4712,18.4712,0,1,1,812.984,324.539,18.4712,18.4712,0,0,1,794.5128,306.0679Z"/>
      <path d="M997.7544,133.394c-.19-.93-.39-1.85-.61-2.76-.11-.47-.22-.94-.34-1.4q-.36-1.35-.75-2.7v-.02c-.14-.48-.29-.96-.45-1.43-.08-.26-.16-.52-.26-.78l-.36-1.05a.2955.2955,0,0,0-.04-.11c-.12-.34-.24-.68-.37-1.02a69.8839,69.8839,0,0,0-2.92-6.84c-.24-.49-.49-.99-.74-1.48-.26-.49-.51-.97-.78-1.46-.26-.48-.53-.96-.8-1.44-1.1-1.9-2.28-3.76-3.53-5.56-1.25-1.81-2.59-3.56-4-5.24-.01-.01-.02-.03-.04-.04-.92-1.12-1.86-2.2-2.85-3.25a75.0057,75.0057,0,0,0-17.0988-13.5826,10.0155,10.0155,0,0,0-13.8329,3.8423,73.3389,73.3389,0,0,1-49.6883,36.75,1.1623,1.1623,0,0,1-.18.04,468.1948,468.1948,0,0,0-164.79-40.02c-1.14-.06-2.29-.12-3.43-.18-1.5-.07-3.01-.14-4.52-.2-1.39-.05-2.79-.09-4.19-.13q-6.06-.18-12.13-.19h-1c-1.31,0-2.61.01-3.92.02-1.03.01-2.05.02-3.08.04-.77.01-1.53.02-2.29.04-1.04.02-2.07.04-3.1.07-.49.01-.97.03-1.46.04-.8.03-1.6.06-2.39.08q-3.09.12-6.16.27c-1.03.05-2.06.1-3.09.16q-4.62.2552-9.24.62c-.88.06-1.77.13-2.66.21-.3.01-.59.04-.89.07q-5.91.495-11.83,1.15c-3.01.33-6.03.69-9.04,1.08q-2.1149.27-4.23.57a467.7391,467.7391,0,0,0-126.52,36.29l-.0129.0015a72.7943,72.7943,0,0,1-34.9871-17.7814,73.4544,73.4544,0,0,1-14.8712-18.9975A10.0153,10.0153,0,0,0,454.45,83.2328a75.186,75.186,0,0,0-17.106,13.5811l-2.89,3.29c-1.4,1.68-2.74,3.43-4,5.24a74.3406,74.3406,0,0,0,0,85.01v178.85a215.0309,215.0309,0,0,0,134.27,199.12v5.27a42.81,42.81,0,0,0,42.81,42.81h201.2a42.8591,42.8591,0,0,0,42.81-42.81v-5.27a215.0465,215.0465,0,0,0,134.26-199.12V190.334c.99-1.41,1.92-2.87,2.81-4.35.45-.74.88-1.49,1.3-2.25s.82-1.53,1.22-2.3c.19-.38.38-.77.58-1.15-.01-.01-.01-.01,0-.01.37-.79.74-1.57,1.09-2.37.22-.5.43-1,.64-1.5.18-.43.36-.86.53-1.3.43-1.09.84-2.19,1.22-3.3a74.7634,74.7634,0,0,0,2.56-38.41Zm-342.46-14.95c1.35-.17,2.69-.33,4.04-.48,1.39-.16,2.78-.32,4.17-.46,1.44-.15,2.87-.29,4.31-.43,1.48-.14,2.97-.28,4.45-.4.3-.04.61-.06.92-.08,1.81-.16,3.61-.29,5.42-.42q2.865-.21,5.74-.36c1.91-.11,3.82-.21,5.73-.28,1.52-.07,3.05-.12,4.57-.17.14,0,.29-.01.43-.01.82-.03,1.65-.06,2.47-.07,1.06-.04,2.11-.06,3.16-.07,1.21-.03,2.42-.04,3.64-.04q1.47-.03,2.94-.03h1.57c-.86,0-1.71.01-2.57.03.98-.02,1.97-.03,2.95-.02.77-.01,1.55,0,2.32.01.3,0,.59,0,.89.01.65,0,1.31.01,1.97.02q3.165.0448,6.33.14c.47.01.95.03,1.42.05,1.15.03,2.31.07,3.47.12,1.85.08,3.7.17,5.56.27,1.62.08,3.24.18,4.86.29,1.62.1,3.24.22,4.85.35,1.62.12,3.23.25,4.85.4,1.62.13,3.23.29,4.85.46,1.61.15,3.23.32,4.84.51,1.43.16,2.86.33,4.28.5q5.925.72,11.83,1.6c1.22.18,2.43.37,3.65.56.03.01.07.01.11.02a436,436,0,0,1,101.15,28.87,137.1544,137.1544,0,0,0-95.57,5.83,141.0989,141.0989,0,0,0-45.07,31.87,147.6575,147.6575,0,0,0-27.69,41.06,147.8379,147.8379,0,0,0-27.68-41.06,141.2087,141.2087,0,0,0-45.07-31.87,137.0557,137.0557,0,0,0-96.57-5.51A435.0293,435.0293,0,0,1,655.2944,118.444Zm71.36,265.9-18.52,19.14-18.52-19.14a147.138,147.138,0,0,0,18.52-30.47A147.138,147.138,0,0,0,726.6544,384.344Zm-277.55-236.51a43.9425,43.9425,0,0,1,1.34-10.61,42.5444,42.5444,0,0,1,5.73-12.85,104.9309,104.9309,0,0,0,64.8,32.29,141.2771,141.2771,0,0,0-41.82,30.37q-1.575,1.65-3.08,3.34a55.4544,55.4544,0,0,1-18.49-17.32C455.1344,169.324,449.1444,159.9739,449.1044,147.834Zm130.7,19.55c58.52,0,107.05,44.8,116.21,103.48v.01a130.3355,130.3355,0,0,1,0,40.21v.01c-9.16,58.7-57.69,103.48-116.21,103.48-65.04,0-117.77-55.33-117.77-123.59S514.7644,167.384,579.8044,167.384Zm15.04,418.92c-6.48,0-11.94-8.01-11.94-17.49,0-9.47,5.46-17.48,11.94-17.48,6.47,0,11.94,8.01,11.94,17.48C606.7844,578.2939,601.3144,586.3039,594.8444,586.3039Zm45.66,12.09c-6.48,0-11.95-8-11.95-17.48s5.47-17.49,11.95-17.49c6.47,0,11.94,8.01,11.94,17.49S646.9744,598.394,640.5044,598.394Zm135.26,0c-6.47,0-11.94-8-11.94-17.48s5.47-17.49,11.94-17.49,11.94,8.01,11.94,17.49S782.2344,598.394,775.7644,598.394Zm57.6-29.58c0,9.48-5.47,17.49-11.94,17.49-6.48,0-11.94-8.01-11.94-17.49,0-9.47,5.46-17.48,11.94-17.48C827.8944,551.334,833.3644,559.344,833.3644,568.8139Zm18.18-35.64q-7.725,3.7951-15.84,6.87a24.4038,24.4038,0,0,0-14.28-4.71c-11.93,0-22.14,9.01-26.13,21.65-5.04-5.91-11.93-9.56-19.53-9.56-15.41,0-27.94,15.02-27.94,33.49,0,1.18.05,2.34.15,3.49h-79.68c.1-1.15.15-2.31.15-3.49,0-18.47-12.54-33.49-27.94-33.49-7.6,0-14.49,3.65-19.53,9.56-3.99-12.64-14.2-21.65-26.13-21.65a24.4041,24.4041,0,0,0-14.28,4.71q-8.115-3.06-15.84-6.88c-59.18-29.11-100.41-89.34-102.2-159.21a145.5274,145.5274,0,0,0,16.63,20.98,141.2069,141.2069,0,0,0,45.07,31.87,137.1132,137.1132,0,0,0,111.16,0,140.3467,140.3467,0,0,0,37.89-24.84l18.16,18.77-.11.12,3.53,3.42,13.01,13.44.27.28,13.28-13.72,3.53-3.42-.11-.12,18.16-18.77a140.3957,140.3957,0,0,0,37.9,24.84,137.09,137.09,0,0,0,111.15,0,141.097,141.097,0,0,0,45.07-31.87,145.98,145.98,0,0,0,16.62-20.96C951.9444,443.834,910.7144,504.0539,851.5444,533.1739Zm-15.07-118.6c-58.52,0-107.06-44.79-116.21-103.49a130.3355,130.3355,0,0,1,0-40.21c9.15-58.69,57.69-103.49,116.21-103.49,65.04,0,117.76,55.34,117.76,123.6S901.5144,414.574,836.4744,414.574Zm130.68-266.76v.02c-.04,12.13-6.03,21.47-8.48,25.2a55.37,55.37,0,0,1-18.5,17.32q-1.5-1.68-3.06-3.32a141.1489,141.1489,0,0,0-41.82-30.37,104.9052,104.9052,0,0,0,64.8-32.29c.72,1.1,1.4,2.22,2.02,3.38.06.12.13.24.19.36.18.34.36.69.53,1.05.13.26.26.53.39.8.18.4.36.8.54,1.21a40.5952,40.5952,0,0,1,1.53,4.21c.16.48.3.97.42,1.46a.09.09,0,0,1,.01.05c.04.1.06.21.09.31.09.33.25.99.43,1.88.08.37.16.78.24,1.22.06.35.12.72.18,1.12.12.83.24,1.75.33,2.73.02.25.04.5.06.76.03.48.06.97.07,1.48q.03.66.03,1.35Z"/>
    </g>
  </g>
</svg>
